<mxfile host="65bd71144e">
    <diagram id="ekXuNp4eFIwUfZkSgztQ" name="Page-1">
        <mxGraphModel dx="1518" dy="1663" grid="1" gridSize="10" guides="1" tooltips="1" connect="1" arrows="1" fold="1" page="1" pageScale="1" pageWidth="850" pageHeight="1100" math="0" shadow="0">
            <root>
                <mxCell id="0"/>
                <mxCell id="1" parent="0"/>
                <mxCell id="2" value="&lt;div style=&quot;color: rgb(204, 204, 204); background-color: rgb(31, 31, 31); font-family: Consolas, &amp;quot;Courier New&amp;quot;, monospace; font-size: 14px; line-height: 19px; white-space-collapse: preserve;&quot;&gt;&lt;div style=&quot;color: rgb(204, 204, 204); line-height: 19px;&quot;&gt;&lt;div&gt;&lt;span style=&quot;color: #6a9955;&quot;&gt;// 5. Crear una clase Cine que tenga los atributos privados película y horario.&lt;/span&gt;&lt;/div&gt;&lt;div&gt;&lt;span style=&quot;color: #cccccc;&quot;&gt;&amp;nbsp; &amp;nbsp; &lt;/span&gt;&lt;span style=&quot;color: #6a9955;&quot;&gt;// ● Crear métodos públicos para la asignación y recuperación de valores.&lt;/span&gt;&lt;/div&gt;&lt;div&gt;&lt;span style=&quot;color: #cccccc;&quot;&gt;&amp;nbsp; &amp;nbsp; &lt;/span&gt;&lt;span style=&quot;color: #6a9955;&quot;&gt;// ● Crear una instancia y asignarle valores.&lt;/span&gt;&lt;/div&gt;&lt;div&gt;&lt;span style=&quot;color: #cccccc;&quot;&gt;&amp;nbsp; &amp;nbsp; &lt;/span&gt;&lt;span style=&quot;color: #6a9955;&quot;&gt;// ● Mostrar por pantalla los valores.&lt;/span&gt;&lt;/div&gt;&lt;div&gt;&lt;span style=&quot;color: #cccccc;&quot;&gt;&amp;nbsp; &amp;nbsp; &lt;/span&gt;&lt;span style=&quot;color: #6a9955;&quot;&gt;// ● Crear una segunda instancia y asignarle valores.&lt;/span&gt;&lt;/div&gt;&lt;div&gt;&lt;span style=&quot;color: #cccccc;&quot;&gt;&amp;nbsp; &amp;nbsp; &lt;/span&gt;&lt;span style=&quot;color: #6a9955;&quot;&gt;// ● Mostrar por pantalla los valores.&lt;/span&gt;&lt;/div&gt;&lt;div&gt;&lt;span style=&quot;color: #cccccc;&quot;&gt;&amp;nbsp; &amp;nbsp; &lt;/span&gt;&lt;span style=&quot;color: #6a9955;&quot;&gt;// ● Cambiar los valores de la primera instancia.&lt;/span&gt;&lt;/div&gt;&lt;div&gt;&lt;span style=&quot;color: #cccccc;&quot;&gt;&amp;nbsp; &amp;nbsp; &lt;/span&gt;&lt;span style=&quot;color: #6a9955;&quot;&gt;// ● Mostrar en pantalla los valores de ambas instancias; concluir que la instrucción new crea&lt;/span&gt;&lt;/div&gt;&lt;div&gt;&lt;span style=&quot;color: #cccccc;&quot;&gt;&amp;nbsp; &amp;nbsp; &lt;/span&gt;&lt;span style=&quot;color: #6a9955;&quot;&gt;// objetos distintos.&lt;/span&gt;&lt;/div&gt;&lt;br&gt;&lt;/div&gt;&lt;/div&gt;" style="text;html=1;align=center;verticalAlign=middle;resizable=0;points=[];autosize=1;strokeColor=none;fillColor=none;" vertex="1" parent="1">
                    <mxGeometry x="-140" y="-47" width="780" height="200" as="geometry"/>
                </mxCell>
                <mxCell id="3" value="class Cinema" style="swimlane;whiteSpace=wrap;html=1;" vertex="1" parent="1">
                    <mxGeometry x="125" y="230" width="250" height="360" as="geometry"/>
                </mxCell>
                <mxCell id="4" value="-private _movie: string;" style="text;html=1;align=center;verticalAlign=middle;resizable=0;points=[];autosize=1;strokeColor=none;fillColor=none;" vertex="1" parent="3">
                    <mxGeometry x="10" y="40" width="140" height="30" as="geometry"/>
                </mxCell>
                <mxCell id="5" value="-private _schedule: string;" style="text;html=1;align=center;verticalAlign=middle;resizable=0;points=[];autosize=1;strokeColor=none;fillColor=none;" vertex="1" parent="3">
                    <mxGeometry x="10" y="70" width="160" height="30" as="geometry"/>
                </mxCell>
                <mxCell id="6" value="+public&amp;nbsp; set movie(newMovie: string);" style="text;html=1;align=center;verticalAlign=middle;resizable=0;points=[];autosize=1;strokeColor=none;fillColor=none;" vertex="1" parent="3">
                    <mxGeometry x="10" y="165" width="220" height="30" as="geometry"/>
                </mxCell>
                <mxCell id="7" value="+public get movie(): string;" style="text;html=1;align=center;verticalAlign=middle;resizable=0;points=[];autosize=1;strokeColor=none;fillColor=none;" vertex="1" parent="3">
                    <mxGeometry x="10" y="210" width="160" height="30" as="geometry"/>
                </mxCell>
                <mxCell id="8" value="+public&amp;nbsp; set schedule(newSchedule: string);" style="text;html=1;align=center;verticalAlign=middle;resizable=0;points=[];autosize=1;strokeColor=none;fillColor=none;" vertex="1" parent="3">
                    <mxGeometry x="-10" y="260" width="260" height="30" as="geometry"/>
                </mxCell>
                <mxCell id="9" value="+public&amp;nbsp; get schedule(): string;" style="text;html=1;align=center;verticalAlign=middle;resizable=0;points=[];autosize=1;strokeColor=none;fillColor=none;" vertex="1" parent="3">
                    <mxGeometry x="10" y="300" width="180" height="30" as="geometry"/>
                </mxCell>
                <mxCell id="10" value="" style="endArrow=none;html=1;" edge="1" parent="3">
                    <mxGeometry width="50" height="50" relative="1" as="geometry">
                        <mxPoint y="130" as="sourcePoint"/>
                        <mxPoint x="250" y="130" as="targetPoint"/>
                    </mxGeometry>
                </mxCell>
            </root>
        </mxGraphModel>
    </diagram>
</mxfile>